<?xml version="1.0" encoding="UTF-8" standalone="no"?>
<!-- Created with Inkscape (http://www.inkscape.org/) -->

<svg
   width="256"
   height="256"
   viewBox="0 0 67.733332 67.733333"
   version="1.1"
   id="svg5"
   inkscape:version="1.2.2 (1:1.2.2+202212051552+b0a8486541)"
   sodipodi:docname="logo.svg"
   xml:space="preserve"
   inkscape:export-filename="logo.png"
   inkscape:export-xdpi="96"
   inkscape:export-ydpi="96"
   xmlns:inkscape="http://www.inkscape.org/namespaces/inkscape"
   xmlns:sodipodi="http://sodipodi.sourceforge.net/DTD/sodipodi-0.dtd"
   xmlns="http://www.w3.org/2000/svg"
   xmlns:svg="http://www.w3.org/2000/svg"><sodipodi:namedview
     id="namedview7"
     pagecolor="#505050"
     bordercolor="#ffffff"
     borderopacity="1"
     inkscape:showpageshadow="0"
     inkscape:pageopacity="0"
     inkscape:pagecheckerboard="1"
     inkscape:deskcolor="#505050"
     inkscape:document-units="px"
     showgrid="false"
     inkscape:zoom="1.3530857"
     inkscape:cx="91.642385"
     inkscape:cy="158.52654"
     inkscape:window-width="1366"
     inkscape:window-height="710"
     inkscape:window-x="0"
     inkscape:window-y="28"
     inkscape:window-maximized="1"
     inkscape:current-layer="layer1" /><defs
     id="defs2" /><g
     inkscape:label="Layer 1"
     inkscape:groupmode="layer"
     id="layer1"><g
       id="g7016"
       transform="matrix(1.2368421,0,0,1.2368421,-8.0210524,-8.0210518)"><g
         id="g6800"
         transform="translate(1e-7,-13.59015)"><path
           style="fill:#ff6600;fill-opacity:1;stroke:none;stroke-width:0.264583"
           d="M 24.68629,63.676161 C 19.855364,61.456381 15.717942,59.486788 15.492019,59.299289 15.149566,59.015079 15.08125,58.19405 15.08125,54.362608 v -4.59577 l -3.175,-1.591579 C 9.2018722,46.819595 8.7312512,46.49154 8.7312512,45.962067 c 0,-0.395674 1.22615,-2.180474 3.3734368,-4.91042 l 3.373437,-4.288808 8.93771,-4.083373 c 4.91574,-2.245855 9.168614,-4.083373 9.450831,-4.083373 0.282218,0 4.53509,1.837518 9.450832,4.083373 l 8.937709,4.083373 3.373437,4.288808 c 2.147287,2.729946 3.373437,4.514746 3.373437,4.91042 0,0.529473 -0.470619,0.857528 -3.174999,2.213192 l -3.175,1.591579 v 4.62207 c 0,4.552593 -0.0093,4.62816 -0.61848,5.027311 -0.919596,0.602543 -17.913968,8.341666 -18.263458,8.317055 -0.165194,-0.01164 -4.252929,-1.837333 -9.083854,-4.057113 z m 7.798479,-10.354183 -0.07331,-3.881482 -2.468083,2.955499 c -1.357447,1.625523 -2.623713,3.015218 -2.813927,3.088211 -0.190214,0.07299 -2.382238,-0.886817 -4.871165,-2.132909 -2.488927,-1.246092 -4.589732,-2.265622 -4.668457,-2.265622 -0.07872,0 -0.109813,1.504847 -0.06909,3.344106 l 0.07405,3.344103 7.408333,3.380872 7.408333,3.380872 0.07331,-3.666082 c 0.04032,-2.016345 0.04032,-5.412751 0,-7.547568 z m 11.039188,7.472537 6.614583,-3.027233 0.07405,-3.340803 c 0.04073,-1.837441 0.0096,-3.340804 -0.06909,-3.340804 -0.07872,0 -2.179531,1.01953 -4.668456,2.265622 -2.488927,1.246092 -4.681503,2.205688 -4.872392,2.132438 -0.289123,-0.110947 -2.361043,-2.442204 -4.849404,-5.456393 l -0.546066,-0.661458 -0.0088,7.593268 -0.0088,7.593272 0.859896,-0.36534 c 0.472942,-0.200935 3.836458,-1.727591 7.474478,-3.392569 z M 29.232592,49.506555 c 1.384574,-1.668883 2.517407,-3.098353 2.517407,-3.176604 0,-0.274076 -14.879194,-6.918562 -15.209288,-6.791894 -0.332836,0.127722 -4.634461,5.544326 -4.634461,5.835714 0,0.243089 14.117995,7.283868 14.482072,7.222347 0.179774,-0.03038 1.459696,-1.420683 2.84427,-3.089563 z m 19.452629,-0.406199 c 3.928023,-1.965053 7.141861,-3.642006 7.141861,-3.726564 0,-0.291401 -4.301609,-5.708007 -4.63446,-5.835735 -0.533213,-0.204611 -15.236388,6.597455 -15.089319,6.980706 0.203141,0.529379 4.970697,6.154412 5.216236,6.154412 0.123103,0 3.43766,-1.60777 7.365682,-3.572819 z m -7.675676,-7.831335 c 3.856781,-1.761139 7.106523,-3.290036 7.221648,-3.397548 0.115126,-0.107512 -3.069796,-1.696847 -7.077603,-3.531855 l -7.286924,-3.336379 -7.280873,3.333609 c -4.00448,1.833485 -7.211882,3.405236 -7.12756,3.492781 0.207632,0.215568 13.942556,6.579114 14.275271,6.613896 0.145042,0.01516 3.41926,-1.413364 7.276041,-3.174504 z"
           id="path5840"
           sodipodi:nodetypes="ssscssscssscssscssssccssssscccsscccssssscccsscssssssssssssssscssss" /><g
           viewBox="0 0 90 20"
           preserveAspectRatio="xMidYMid meet"
           class="style-scope yt-icon"
           transform="matrix(0.91448051,0,0,0.91448051,20.803266,27.180299)"
           id="g162"><g
             class="style-scope yt-icon"
             id="g160"><path
               d="M 27.9727,3.12324 C 27.6435,1.89323 26.6768,0.926623 25.4468,0.597366 23.2197,2.24288e-7 14.285,0 14.285,0 14.285,0 5.35042,2.24288e-7 3.12323,0.597366 1.89323,0.926623 0.926623,1.89323 0.597366,3.12324 2.24288e-7,5.35042 0,10 0,10 c 0,0 2.24288e-7,4.6496 0.597366,6.8768 0.329257,1.23 1.295864,2.1966 2.525864,2.5258 C 5.35042,20 14.285,20 14.285,20 c 0,0 8.9347,0 11.1618,-0.5974 1.23,-0.3292 2.1967,-1.2958 2.5259,-2.5258 C 28.5701,14.6496 28.5701,10 28.5701,10 c 0,0 -0.0024,-4.64958 -0.5974,-6.87676 z"
               class="style-scope yt-icon"
               fill="#ff0000"
               id="path156" /><path
               d="m 11.4253,14.2854 7.4224,-4.285 -7.4224,-4.28507 z"
               class="style-scope yt-icon"
               fill="#ffffff"
               id="path158" /></g></g><path
           style="fill:#ff6600;fill-opacity:1;stroke:none;stroke-width:0.264583"
           d="m 55.628642,41.051647 c 2.14729,2.729946 3.37344,4.514746 3.37344,4.91042 0,0.529473 -0.47062,0.857528 -3.175,2.213192 l -3.175,1.591579 v 4.62207 c 0,4.552593 -0.009,4.62816 -0.61848,5.027311 -0.9196,0.602543 -17.91397,8.341666 -18.26346,8.317055 -0.16519,-0.01164 -4.25293,-1.837333 -9.083853,-4.057113 -4.830926,-2.21978 -8.968348,-4.189373 -9.194271,-4.376872 -0.342453,-0.28421 -0.410769,-1.105239 -0.410769,-4.936681 v -4.59577 l -3.175,-1.591579 C 9.2018713,46.819595 8.7312503,46.49154 8.7312503,45.962067 c 0,-0.395674 1.22615,-2.180474 3.3734367,-4.91042 l 5.363491,-3.755413 c 2.197686,0.748963 15.932614,7.112509 16.265324,7.147291 0.14504,0.01516 3.41926,-1.413364 7.27604,-3.174504 3.85678,-1.761139 7.10653,-3.290036 9.23365,-3.951865 z m -23.14387,12.270331 -0.0733,-3.881482 -2.46809,2.955499 c -1.35744,1.625523 -2.62371,3.015218 -2.81392,3.088211 -0.19022,0.07299 -2.382242,-0.886817 -4.871169,-2.132909 -2.488927,-1.246092 -4.589732,-2.265622 -4.668457,-2.265622 -0.07872,0 -0.109813,1.504847 -0.06909,3.344106 l 0.07405,3.344103 7.408333,3.380872 7.408333,3.380872 0.0733,-3.666082 c 0.0403,-2.016345 0.0403,-5.412751 0,-7.547568 z m 11.03918,7.472537 6.61459,-3.027233 0.074,-3.340803 c 0.0407,-1.837441 0.01,-3.340804 -0.0691,-3.340804 -0.0787,0 -2.17953,1.01953 -4.66846,2.265622 -2.48893,1.246092 -4.6815,2.205688 -4.87239,2.132438 -0.28912,-0.110947 -2.36104,-2.442204 -4.8494,-5.456393 l -0.54607,-0.661458 -0.009,7.593268 -0.009,7.593272 0.8599,-0.36534 c 0.47294,-0.200935 3.83645,-1.727591 7.47447,-3.392569 z m -14.29136,-11.28796 c 1.38457,-1.668883 2.51741,-3.098353 2.51741,-3.176604 0,-0.274076 -14.879198,-6.918562 -15.209292,-6.791894 -0.332836,0.127722 -4.634461,5.544326 -4.634461,5.835714 0,0.243089 14.117993,7.283868 14.482073,7.222347 0.17977,-0.03038 1.4597,-1.420683 2.84427,-3.089563 z m 19.45263,-0.406199 c 3.92802,-1.965053 7.14186,-3.642006 7.14186,-3.726564 0,-0.291401 -4.30161,-5.708007 -4.63446,-5.835735 -0.53321,-0.204611 -15.23639,6.597455 -15.08932,6.980706 0.20314,0.529379 4.9707,6.154412 5.21624,6.154412 0.1231,0 3.43766,-1.60777 7.36568,-3.572819 z"
           id="path5840-3"
           sodipodi:nodetypes="ssscsssssscssscsscsccssssscccsscccssssscccsscssssssssssss" /><path
           style="fill:#ff6600;fill-opacity:1;stroke:#ff6600;stroke-width:2;stroke-linecap:round;stroke-linejoin:round;stroke-dasharray:none;stroke-opacity:1"
           d="m 92.498132,195.2726 c -8.119298,-3.7786 -44.918714,-22.30364 -46.27378,-23.29449 -0.943387,-0.68982 -0.779779,-1.00841 3.150862,-6.13555 2.280255,-2.97437 6.144264,-7.8189 8.586687,-10.76563 3.625198,-4.37371 4.637004,-5.30028 5.509263,-5.04515 3.734094,1.09218 43.877986,18.83623 52.865086,23.36696 l 3.42647,1.72741 -5.46996,6.76412 c -7.44275,9.20366 -13.88499,16.433 -14.638679,16.4272 -0.34298,-0.003 -3.563154,-1.37283 -7.155949,-3.04487 z"
           id="path6034"
           transform="scale(0.26458333)" /><path
           style="fill:#ff6600;fill-opacity:1;stroke:#ff6600;stroke-width:2;stroke-linecap:round;stroke-linejoin:round;stroke-dasharray:none;stroke-opacity:1"
           d="m 153.71878,196.07175 c -5.70193,-6.03897 -16.80064,-19.46011 -16.80064,-20.31622 0,-1.2381 50.0058,-24.47702 55.39436,-25.74312 1.15083,-0.2704 1.81289,0.30099 5.55734,4.79632 2.33797,2.80681 6.17369,7.65795 8.52382,10.78032 4.09839,5.44508 4.23067,5.70664 3.23774,6.40211 -1.50225,1.05222 -35.47647,18.27308 -45.13299,22.87703 l -8.21703,3.91763 z"
           id="path6040"
           transform="scale(0.26458333)" /></g><path
         style="fill:#d45500;fill-opacity:1;stroke:#d45500;stroke-width:1;stroke-linecap:round;stroke-linejoin:round;stroke-dasharray:none;stroke-opacity:1"
         d="m 118.24824,190.48678 c -8.34404,-3.80455 -40.524244,-18.48982 -46.022666,-21.0022 l -5.651977,-2.58254 -0.121539,-5.66585 c -0.14922,-6.95634 -0.155518,-18.45621 -0.0104,-18.99711 l 0.106738,-0.39786 0.860744,0.37209 c 0.473409,0.20466 5.724627,2.76639 11.669372,5.69275 13.760882,6.77392 19.395673,9.3767 22.214768,10.26129 0.92993,0.2918 1.11887,0.30061 1.5458,0.0721 0.94931,-0.50805 6.10549,-6.32874 14.34119,-16.18944 l 5.27394,-6.31455 0.16036,9.5479 c 0.17637,10.50135 0.13717,32.34421 -0.0742,41.34919 l -0.13497,5.74972 z"
         id="path6888"
         transform="scale(0.26458333)" /><path
         style="fill:#d45500;fill-opacity:1;stroke:#d45500;stroke-width:1;stroke-linecap:round;stroke-linejoin:round;stroke-dasharray:none;stroke-opacity:1"
         d="m 133.05569,180.6519 c 0.0145,-6.47825 0.0769,-19.24839 0.13857,-28.37808 l 0.11215,-16.59945 2.49345,3.01937 c 6.37518,7.71988 13.27743,15.60833 16.04058,18.33245 1.44228,1.42192 1.49296,1.45281 2.17409,1.32503 1.89473,-0.35546 7.23235,-2.7679 19.75495,-8.92866 5.48746,-2.69966 11.26592,-5.51823 12.84102,-6.26347 l 2.86383,-1.35499 0.14974,1.15547 c 0.15877,1.22505 -0.0155,19.11369 -0.21608,22.18268 l -0.11843,1.81188 -12.9334,5.91851 c -28.81288,13.1852 -42.90232,19.55789 -43.2407,19.55789 -0.0474,0 -0.0743,-5.30038 -0.0598,-11.77863 z"
         id="path6890"
         transform="scale(0.26458333)" /><path
         style="fill:#d45500;fill-opacity:1;stroke:#d45500;stroke-width:0.5;stroke-linecap:butt;stroke-linejoin:miter;stroke-dasharray:none;stroke-opacity:1"
         d="m 78.053465,93.887298 c -1.360202,-0.657189 -1.787839,-0.866642 -2.751754,-1.347785 -0.990087,-0.494206 -1.385366,-0.700399 -1.621787,-0.845986 -0.137423,-0.08462 -0.142835,-0.09015 -0.121273,-0.123746 0.04119,-0.06419 0.29987,-0.245912 0.635702,-0.446584 0.726562,-0.434148 1.795764,-1.004955 3.614149,-1.929461 l 0.832875,-0.423452 0.01089,0.07569 c 0.006,0.04163 0.01916,0.454161 0.02926,0.916733 0.02575,1.178524 0.07961,2.720834 0.1397,4.000171 0.01284,0.273457 0.02173,0.498536 0.01973,0.500175 -0.002,0.0016 -0.356366,-0.167451 -0.787501,-0.375757 z"
         id="path6982"
         transform="scale(0.26458333)" /><path
         style="fill:#d45500;fill-opacity:1;stroke:#d45500;stroke-width:0.5;stroke-linecap:butt;stroke-linejoin:miter;stroke-dasharray:none;stroke-opacity:1"
         d="m 177.1645,94.2408 c 0,-0.03736 0.0204,-0.554148 0.0453,-1.148411 0.0488,-1.162896 0.0812,-2.111512 0.11577,-3.387175 0.012,-0.443024 0.0268,-0.810434 0.0328,-0.816468 0.0188,-0.01882 1.80777,0.921541 2.87778,1.512705 1.25554,0.693662 2.05549,1.215205 2.05549,1.340117 0,0.01445 -0.0806,0.07396 -0.17899,0.132254 -0.33023,0.195538 -3.7568,1.885393 -4.78074,2.357679 l -0.16744,0.07723 z"
         id="path6984"
         transform="scale(0.26458333)" /></g></g></svg>
